<svg width="39" height="14" viewBox="0 0 39 14" fill="none" xmlns="http://www.w3.org/2000/svg">
<g clip-path="url(#clip0_6392_8593)">
<path d="M37 1.99841H22V11.9969H37V1.99841Z" fill="#F0F0F0"/>
<path d="M29.5 9.8125C30.2459 9.8125 30.9613 9.51618 31.4887 8.98874C32.0162 8.46129 32.3125 7.74592 32.3125 7C32.3125 6.25408 32.0162 5.53871 31.4887 5.01126C30.9613 4.48382 30.2459 4.1875 29.5 4.1875C28.7541 4.1875 28.0387 4.48382 27.5113 5.01126C26.9838 5.53871 26.6875 6.25408 26.6875 7C26.6875 7.74592 26.9838 8.46129 27.5113 8.98874C28.0387 9.51618 28.7541 9.8125 29.5 9.8125Z" fill="#D80027"/>
</g>
<rect x="21" y="1" width="17" height="12" rx="3" stroke="#292733" stroke-width="2"/>
<g clip-path="url(#clip1_6392_8593)">
<path d="M27 1.99841H12V11.9969H27V1.99841Z" fill="#F0F0F0"/>
<path d="M27 1.99841H12V5.33123H27V1.99841Z" fill="#A2001D"/>
<path d="M27 8.66876H12V12.0016H27V8.66876Z" fill="#0052B4"/>
</g>
<rect x="11" y="1" width="17" height="12" rx="3" stroke="#292733" stroke-width="2"/>
<g clip-path="url(#clip2_6392_8593)">
<path d="M17 1.99841H2V11.9969H17V1.99841Z" fill="#F0F0F0"/>
<path d="M17 3.25H2V4.50156H17V3.25ZM17 5.74844H2V7H17V5.74844ZM17 8.25156H2V9.50313H17V8.25156ZM17 10.75H2V12.0016H17V10.75Z" fill="#D80027"/>
<path d="M9.5 1.99841H2V7.38435H9.5V1.99841Z" fill="#2E52B2"/>
<path d="M4.92502 4.20623L4.80315 4.57654H4.41409L4.72815 4.80623L4.60627 5.17654L4.92502 4.94685L5.23909 5.17654L5.1219 4.80623L5.43596 4.57654H5.0469L4.92502 4.20623ZM5.0469 5.91716L4.92502 5.54685L4.80315 5.91716H4.41409L4.72815 6.14685L4.60627 6.51716L4.92502 6.29216L5.23909 6.51716L5.1219 6.14685L5.43596 5.91716H5.0469ZM3.39221 5.91716L3.27034 5.54685L3.15315 5.91716H2.7594L3.07815 6.14685L2.95627 6.51716L3.27034 6.29216L3.58909 6.51716L3.46721 6.14685L3.78596 5.91716H3.39221ZM3.27034 4.20623L3.15315 4.57654H2.7594L3.07815 4.80623L2.95627 5.17654L3.27034 4.94685L3.58909 5.17654L3.46721 4.80623L3.78596 4.57654H3.39221L3.27034 4.20623ZM4.92502 2.8656L4.80315 3.23591H4.41409L4.72815 3.4656L4.60627 3.83591L4.92502 3.60623L5.23909 3.83591L5.1219 3.4656L5.43596 3.23591H5.0469L4.92502 2.8656ZM3.27034 2.8656L3.15315 3.23591H2.7594L3.07815 3.4656L2.95627 3.83591L3.27034 3.60623L3.58909 3.83591L3.46721 3.4656L3.78596 3.23591H3.39221L3.27034 2.8656ZM6.57502 4.20623L6.45315 4.57654H6.06409L6.37815 4.80623L6.26096 5.17654L6.57502 4.94685L6.88909 5.17654L6.7719 4.80623L7.08596 4.57654H6.6969L6.57502 4.20623ZM6.6969 5.91716L6.57502 5.54685L6.45315 5.91716H6.06409L6.37815 6.14685L6.26096 6.51716L6.57502 6.29216L6.88909 6.51716L6.7719 6.14685L7.08596 5.91716H6.6969ZM8.3469 5.91716L8.22502 5.54685L8.10784 5.91716H7.71409L8.03284 6.14685L7.91096 6.51716L8.22502 6.29216L8.54377 6.51716L8.4219 6.14685L8.73596 5.91716H8.3469ZM8.22502 4.20623L8.10784 4.57654H7.71409L8.03284 4.80623L7.91096 5.17654L8.22502 4.94685L8.54377 5.17654L8.4219 4.80623L8.73596 4.57654H8.3469L8.22502 4.20623ZM6.57502 2.8656L6.45315 3.23591H6.06409L6.37815 3.4656L6.26096 3.83591L6.57502 3.60623L6.88909 3.83591L6.7719 3.4656L7.08596 3.23591H6.6969L6.57502 2.8656ZM8.22502 2.8656L8.10784 3.23591H7.71409L8.03284 3.4656L7.91096 3.83591L8.22502 3.60623L8.54377 3.83591L8.4219 3.4656L8.73596 3.23591H8.3469L8.22502 2.8656Z" fill="#F0F0F0"/>
</g>
<rect x="1" y="1" width="17" height="12" rx="3" stroke="#292733" stroke-width="2"/>
<defs>
<clipPath id="clip0_6392_8593">
<rect x="22" y="2" width="15" height="10" rx="2" fill="white"/>
</clipPath>
<clipPath id="clip1_6392_8593">
<rect x="12" y="2" width="15" height="10" rx="2" fill="white"/>
</clipPath>
<clipPath id="clip2_6392_8593">
<rect x="2" y="2" width="15" height="10" rx="2" fill="white"/>
</clipPath>
</defs>
</svg>
